HIERARCHY
ROOT joint_Root
{
	OFFSET 0.0 0.0 0.0
	CHANNELS 6 Xposition Yposition Zposition Zrotation Xrotation Yrotation 
	JOINT Hips
	{
		OFFSET -0.726466 93.3139 -2.00062
		CHANNELS 6 Xposition Yposition Zposition Zrotation Xrotation Yrotation 
		JOINT Spine
		{
			OFFSET 15.7357 0.0 0.0
			CHANNELS 6 Xposition Yposition Zposition Zrotation Xrotation Yrotation 
			JOINT Chest
			{
				OFFSET 8.98455 -0.406207 0.0
				CHANNELS 6 Xposition Yposition Zposition Zrotation Xrotation Yrotation 
				JOINT Neck
				{
					OFFSET 16.3773 0.0 0.0
					CHANNELS 6 Xposition Yposition Zposition Zrotation Xrotation Yrotation 
					JOINT Head
					{
						OFFSET 6.45672 0.0 0.0
						CHANNELS 6 Xposition Yposition Zposition Zrotation Xrotation Yrotation 
						End Site
						{
							OFFSET 0.0 0.0 0.0
						}
					}
				}
				JOINT Shoulder_L
				{
					OFFSET 12.9942 -0.242716 4.98039
					CHANNELS 6 Xposition Yposition Zposition Zrotation Xrotation Yrotation 
					JOINT UpperArm_L
					{
						OFFSET 5.34809 0.0 0.0
						CHANNELS 6 Xposition Yposition Zposition Zrotation Xrotation Yrotation 
						JOINT LowerArm_L
						{
							OFFSET 24.3286 1.87007e-05 0.0
							CHANNELS 6 Xposition Yposition Zposition Zrotation Xrotation Yrotation 
							JOINT Hand_L
							{
								OFFSET 22.2916 0.0 0.0
								CHANNELS 6 Xposition Yposition Zposition Zrotation Xrotation Yrotation 
								End Site
								{
									OFFSET 0.0 0.0 0.0
								}
							}
						}
					}
				}
				JOINT Shoulder_R
				{
					OFFSET 12.9945 -0.242716 -4.98039
					CHANNELS 6 Xposition Yposition Zposition Zrotation Xrotation Yrotation 
					JOINT UpperArm_R
					{
						OFFSET -5.34813 0.0 0.0
						CHANNELS 6 Xposition Yposition Zposition Zrotation Xrotation Yrotation 
						JOINT LowerArm_R
						{
							OFFSET -24.3289 0.000322201 0.0
							CHANNELS 6 Xposition Yposition Zposition Zrotation Xrotation Yrotation 
							JOINT Hand_R
							{
								OFFSET -22.2915 -0.000108084 0.0
								CHANNELS 6 Xposition Yposition Zposition Zrotation Xrotation Yrotation 
								End Site
								{
									OFFSET 0.0 0.0 0.0
								}
							}
						}
					}
				}
			}
		}
		JOINT UpperLeg_L
		{
			OFFSET -2.19248 -6.46944 0.0
			CHANNELS 6 Xposition Yposition Zposition Zrotation Xrotation Yrotation 
			JOINT LowerLeg_L
			{
				OFFSET 39.0811 0.0 -1.23785e-05
				CHANNELS 6 Xposition Yposition Zposition Zrotation Xrotation Yrotation 
				JOINT Foot_L
				{
					OFFSET 40.9854 0.0 -1.26872e-05
					CHANNELS 6 Xposition Yposition Zposition Zrotation Xrotation Yrotation 
					JOINT Toes_L
					{
						OFFSET 11.7543 0.0 0.0
						CHANNELS 6 Xposition Yposition Zposition Zrotation Xrotation Yrotation 
						End Site
						{
							OFFSET 0.0 0.0 0.0
						}
					}
				}
			}
		}
		JOINT UpperLeg_R
		{
			OFFSET -2.19251 6.46944 0.0
			CHANNELS 6 Xposition Yposition Zposition Zrotation Xrotation Yrotation 
			JOINT LowerLeg_R
			{
				OFFSET -39.0811 -0.00228153 -0.0401928
				CHANNELS 6 Xposition Yposition Zposition Zrotation Xrotation Yrotation 
				JOINT Foot_R
				{
					OFFSET -40.9854 0.0 0.0
					CHANNELS 6 Xposition Yposition Zposition Zrotation Xrotation Yrotation 
					JOINT Toes_R
					{
						OFFSET -11.7543 0.0 0.0
						CHANNELS 6 Xposition Yposition Zposition Zrotation Xrotation Yrotation 
						End Site
						{
							OFFSET 0.0 0.0 0.0
						}
					}
				}
			}
		}
	}
}
MOTION
Frames:	6
Frame Time:	0.0333333
0.000000 0.000000 0.000000 0.000000 0.000000 -0.000000 -0.736279 92.876600 0.541311 88.979300 -2.613070 0.960813 15.735700 0.000005 -0.000001 94.979000 86.888500 -94.961000 8.984550 -0.406207 -0.000000 -1.566530 0.538518 0.043433 16.377300 -0.000001 -0.000001 0.954312 -2.465370 3.259140 6.456720 -0.000001 -0.000000 5.712710 -1.166580 -3.454590 12.994200 -0.242716 4.980390 -90.520200 1.708850 -73.067700 5.348090 -0.000007 -0.000001 -66.923300 37.596500 -14.475600 24.328600 0.000019 0.000005 5.154800 12.475800 -22.663000 22.291600 -0.000001 0.000005 2.681980 5.495410 -6.354660 12.994500 -0.242716 -4.980390 87.583700 8.248090 -73.609300 -5.348130 -0.000001 -0.000004 -63.187600 39.621200 -13.478700 -24.328900 0.000322 -0.000009 5.078380 13.369400 -21.025700 -22.291500 -0.000108 -0.000004 5.033790 5.339530 -1.059130 -2.192480 -6.469440 -0.000000 -176.499000 -8.464510 -2.123830 39.081100 -0.000007 -0.000012 -0.064015 0.212156 16.790300 40.985400 -0.000006 -0.000013 -0.444406 4.270950 -63.810400 11.754300 -0.000000 0.000003 -0.000004 -0.000056 -16.579700 -2.192510 6.469440 -0.000001 179.236000 11.444000 -179.940000 -39.081100 -0.002282 -0.040193 -0.051050 0.220986 13.825200 -40.985400 0.000008 0.000006 1.343180 7.502230 -63.226100 -11.754300 -0.000006 -0.000006 -0.005390 -0.065191 -19.225900
0.000000 0.000000 0.000000 0.000000 0.000000 -0.000000 -0.737935 92.894800 0.485224 89.003900 -2.576400 0.903096 15.735700 0.000005 -0.000001 94.896400 86.901100 -94.903900 8.984550 -0.406207 -0.000000 -1.590790 0.529506 -0.007575 16.377300 -0.000001 -0.000001 0.988739 -2.458170 3.304120 6.456720 -0.000001 -0.000000 5.612910 -1.111860 -3.383460 12.994200 -0.242716 4.980390 -90.567800 1.860630 -73.028000 5.348090 -0.000007 -0.000001 -65.972000 35.768500 -15.169500 24.328600 0.000019 0.000005 7.148310 15.348600 -25.349200 22.291600 -0.000001 0.000005 0.772604 5.507140 -6.825110 12.994500 -0.242716 -4.980390 87.623500 8.075910 -73.542100 -5.348130 -0.000001 -0.000004 -62.261700 38.505500 -14.292200 -24.328900 0.000322 -0.000009 6.391670 14.465200 -24.155300 -22.291500 -0.000108 -0.000004 1.213680 5.320840 -0.515873 -2.192480 -6.469440 -0.000000 -176.555000 -8.359770 -2.165890 39.081100 -0.000007 -0.000012 -0.062495 0.208968 16.650100 40.985400 -0.000006 -0.000013 -0.460395 4.158420 -63.691800 11.754300 -0.000000 0.000003 -0.000003 -0.000049 -16.579400 -2.192510 6.469440 -0.000001 179.271000 11.424700 179.964000 -39.081100 -0.002282 -0.040193 -0.048328 0.210269 13.803400 -40.985400 0.000008 0.000006 1.548830 7.371800 -63.201800 -11.754300 -0.000006 -0.000006 -0.005288 -0.064228 -19.186600
0.000000 0.000000 0.000000 0.000000 0.000000 -0.000000 -0.745014 92.903000 0.371049 89.015300 -2.498210 1.014760 15.735700 0.000005 -0.000001 94.324400 86.855200 -94.356500 8.984550 -0.406207 -0.000000 -1.494300 0.476736 -0.057884 16.377300 -0.000001 -0.000001 1.278850 -2.399220 3.366180 6.456720 -0.000001 -0.000000 5.257750 -1.004590 -3.335090 12.994200 -0.242716 4.980390 -90.642000 2.074020 -72.795400 5.348090 -0.000007 -0.000001 -63.393900 32.751200 -17.206900 24.328600 0.000019 0.000005 8.214720 14.647500 -29.726900 22.291600 -0.000001 0.000005 0.845199 5.512100 -7.024960 12.994500 -0.242716 -4.980390 87.641500 7.874700 -73.268300 -5.348130 -0.000001 -0.000004 -60.446200 35.479800 -16.066800 -24.328900 0.000322 -0.000009 7.778570 14.251000 -29.030400 -22.291500 -0.000108 -0.000004 -1.908720 5.316480 -0.392537 -2.192480 -6.469440 -0.000000 -176.550000 -8.303820 -2.147170 39.081100 -0.000007 -0.000012 -0.062402 0.208548 16.658100 40.985400 -0.000006 -0.000013 -0.458881 4.196950 -63.610800 11.754300 -0.000000 0.000003 -0.000004 -0.000053 -16.579600 -2.192510 6.469440 -0.000001 179.285000 11.375300 179.972000 -39.081100 -0.002282 -0.040193 -0.047521 0.206195 13.854200 -40.985400 0.000008 0.000006 1.568670 7.234150 -63.153700 -11.754300 -0.000006 -0.000006 -0.005153 -0.062941 -19.134100
0.000000 0.000000 0.000000 0.000000 0.000000 -0.000000 -0.769738 92.914900 0.181264 89.030800 -2.375210 1.112470 15.735700 0.000005 -0.000001 94.011400 86.828200 -94.077100 8.984550 -0.406207 -0.000000 -1.437800 0.448942 -0.125681 16.377300 -0.000001 -0.000001 1.810640 -2.325870 3.364080 6.456720 -0.000001 -0.000000 4.965360 -0.958188 -3.172460 12.994200 -0.242716 4.980390 -90.651400 2.082280 -72.624400 5.348090 -0.000007 -0.000001 -60.117800 27.984000 -20.454200 24.328600 0.000019 0.000005 8.519520 12.127900 -35.490900 22.291600 -0.000001 0.000005 2.723870 5.532850 -7.911690 12.994500 -0.242716 -4.980390 87.612300 7.762830 -72.844400 -5.348130 -0.000001 -0.000004 -57.468900 31.270800 -18.933300 -24.328900 0.000322 -0.000009 9.031990 12.640100 -35.997400 -22.291500 -0.000108 -0.000004 -1.292710 5.303150 -0.013868 -2.192480 -6.469440 -0.000000 -176.550000 -8.259800 -2.220030 39.081100 -0.000007 -0.000012 -0.061686 0.205674 16.695100 40.985400 -0.000006 -0.000013 -0.456682 4.264080 -63.482100 11.754300 -0.000000 0.000003 -0.000004 -0.000052 -16.579600 -2.192510 6.469440 -0.000001 179.305000 11.399700 179.903000 -39.081100 -0.002282 -0.040193 -0.047437 0.204448 13.945700 -40.985400 0.000008 0.000006 1.628150 7.146600 -63.088400 -11.754300 -0.000006 -0.000006 -0.005458 -0.065827 -19.251800
0.000000 0.000000 0.000000 0.000000 0.000000 -0.000000 -0.788131 92.919900 -0.001310 89.006500 -2.342770 1.270960 15.735700 0.000005 -0.000001 93.967400 86.810000 -94.022900 8.984550 -0.406207 -0.000000 -1.401210 0.445768 -0.105547 16.377300 -0.000001 -0.000001 2.419860 -2.231830 3.359270 6.456720 -0.000001 -0.000000 5.091590 -0.888457 -3.211370 12.994200 -0.242716 4.980390 -90.628000 1.996220 -72.532100 5.348090 -0.000007 -0.000001 -56.855100 21.687100 -24.400200 24.328600 0.000019 0.000005 9.790880 10.519600 -43.385400 22.291600 -0.000001 0.000005 4.864470 5.549310 -8.667570 12.994500 -0.242716 -4.980390 87.636000 7.495230 -72.438600 -5.348130 -0.000001 -0.000004 -54.012900 25.890100 -22.841900 -24.328900 0.000322 -0.000009 12.070000 12.152800 -45.436600 -22.291500 -0.000108 -0.000004 1.275300 5.311940 -0.265311 -2.192480 -6.469440 -0.000000 -176.491000 -8.261630 -2.266290 39.081100 -0.000007 -0.000012 -0.062128 0.205452 16.825100 40.985400 -0.000006 -0.000013 -0.456911 4.340530 -63.405500 11.754300 -0.000000 0.000003 -0.000003 -0.000051 -16.579500 -2.192510 6.469440 -0.000001 179.306000 11.446400 179.923000 -39.081100 -0.002282 -0.040193 -0.049666 0.212988 13.973200 -40.985400 0.000008 0.000006 1.441610 7.214910 -62.948400 -11.754300 -0.000006 -0.000006 -0.005613 -0.067280 -19.311000
0.000000 0.000000 0.000000 0.000000 0.000000 -0.000000 -0.792136 92.938100 -0.186513 88.987800 -2.398080 1.327760 15.735700 0.000005 -0.000001 94.128900 86.874200 -94.174000 8.984550 -0.406207 -0.000000 -1.530520 0.453671 -0.084062 16.377300 -0.000001 -0.000001 3.018630 -2.095300 3.399230 6.456720 -0.000001 -0.000000 5.716590 -0.821242 -3.267980 12.994200 -0.242716 4.980390 -90.491200 1.557500 -72.494800 5.348090 -0.000007 -0.000001 -54.098300 14.705500 -28.826700 24.328600 0.000019 0.000005 10.829400 8.451930 -52.468400 22.291600 -0.000001 0.000005 7.472450 5.567360 -9.539340 12.994500 -0.242716 -4.980390 87.693100 7.170070 -72.112100 -5.348130 -0.000001 -0.000004 -50.289500 19.808500 -27.633300 -24.328900 0.000322 -0.000009 16.833100 11.562500 -56.471100 -22.291500 -0.000108 -0.000004 5.125180 5.330740 -0.789782 -2.192480 -6.469440 -0.000000 -176.477000 -8.299980 -2.313030 39.081100 -0.000007 -0.000012 -0.060514 0.200397 16.802700 40.985400 -0.000006 -0.000013 -0.459535 4.310250 -63.276300 11.754300 -0.000000 0.000003 -0.000003 -0.000049 -16.579400 -2.192510 6.469440 -0.000001 179.341000 11.505400 179.865000 -39.081100 -0.002282 -0.040193 -0.049670 0.213622 13.934300 -40.985400 0.000008 0.000006 1.423860 7.265630 -62.790600 -11.754300 -0.000006 -0.000006 -0.005438 -0.065643 -19.244300
